# xmcd
#
# Track frame offsets:
#	150
#	19190
#	32775
#	44170
#	55692
#	66180
#	75372
#	89080
#	108435
#	125300
#	146487
#	165862
#	176370
#	187650
#	216162
#	227720
#	245100
#	258057
#	271680
#	285335
#	299295
#	310945
#
# Disc length: 4517 seconds
#
# Revision: 1
# Processed by: cddbd v1.5.1PL0 Copyright (c) Steve Scherf et al.
# Submitted via: CDex 1.50Beta5
#
DISCID=2c11a316
DTITLE=シカゴ - TV-CMソング・ベスト22
DYEAR=1900
DGENRE=Rock
TTITLE0=シカゴ/長い夜
TTITLE1=フォー・エイセス/慕情
TTITLE2=ペギー・リー/貴方とは遊ばないよ
TTITLE3=ヤング・ラスカルズ/グルービン
TTITLE4=ティモシー・シュミット/ソー・マッチ・イン・ラブ
TTITLE5=ジョニー・ソマーズ/ワン・ボーイ
TTITLE6=デイビッド・リンドレー/僕のロミオ
TTITLE7=ジョン・コルトレーン・カルテット/セイ・イット
TTITLE8=バージニア・アストレイ/LE SONG
TTITLE9=ピーター・セテラ/STAY WITH ME
TTITLE10=ドリーム・アカデミー/ライフ・イン・ア・ノーザン・タウン
TTITLE11=ルイ・アームストロング/この素晴らしき世界
TTITLE12=エミルー・ハリス/テネシー・ワルツ
TTITLE13=ライ・クーダー/アクロス・ザ・ボーダーライン
TTITLE14=ダニー&ザ・ジュニアーズ/踊りに行こうよ
TTITLE15=ランディ・クロフォード/パステル・ハイウェイ
TTITLE16=パーシー・スレッジ/男が女を愛する時
TTITLE17=ベン・E・キング/スタンド・バイ・ミー
TTITLE18=パット・ブーン/アイル・ビー・ホーム
TTITLE19=デビー・レイノルズ/タミー
TTITLE20=カスケーズ/悲しき雨音
TTITLE21=イーグルス/ホテル・カリフォルニア
EXTD=
EXTT0=
EXTT1=
EXTT2=
EXTT3=
EXTT4=
EXTT5=
EXTT6=
EXTT7=
EXTT8=
EXTT9=
EXTT10=
EXTT11=
EXTT12=
EXTT13=
EXTT14=
EXTT15=
EXTT16=
EXTT17=
EXTT18=
EXTT19=
EXTT20=
EXTT21=
PLAYORDER=
